<svg width="21" height="13" viewBox="0 0 21 13" fill="none" xmlns="http://www.w3.org/2000/svg">
<path d="M1 0.5H20C20.2761 0.5 20.5 0.723858 20.5 1C20.5 1.27614 20.2761 1.5 20 1.5H1C0.723858 1.5 0.5 1.27614 0.5 1C0.5 0.723858 0.723858 0.5 1 0.5Z" fill="#444444" stroke="#444444"/>
<path d="M1 5.5H20C20.2761 5.5 20.5 5.72386 20.5 6C20.5 6.27614 20.2761 6.5 20 6.5H1C0.723858 6.5 0.5 6.27614 0.5 6C0.5 5.72386 0.723858 5.5 1 5.5Z" fill="#444444" stroke="#444444"/>
<path d="M1 10.6666H14.1667C14.4428 10.6666 14.6667 10.8905 14.6667 11.1666C14.6667 11.4428 14.4428 11.6666 14.1667 11.6666H1C0.723858 11.6666 0.5 11.4428 0.5 11.1666C0.5 10.8905 0.723858 10.6666 1 10.6666Z" fill="#444444" stroke="#444444"/>
</svg>
